<svg xmlns="http://www.w3.org/2000/svg" width="1200" height="320" viewBox="0 0 1200 320" role="img" aria-label="Lucas Amaral Evangelista. I build systems that ship.">
  <defs>
    <pattern id="grid" width="44" height="44" patternUnits="userSpaceOnUse" patternTransform="rotate(30)">
      <path d="M44 0H0V44" fill="none" stroke="#E9E0D3" stroke-width="1"/>
    </pattern>
    <linearGradient id="fade" x1="0" y1="0" x2="1" y2="0">
      <stop offset="0" stop-color="#FDFBF7" stop-opacity="1"/>
      <stop offset="0.55" stop-color="#FDFBF7" stop-opacity="0.35"/>
      <stop offset="1" stop-color="#FDFBF7" stop-opacity="0"/>
    </linearGradient>
  </defs>
  <rect width="1200" height="320" rx="24" fill="#FDFBF7"/>
  <rect width="1200" height="320" rx="24" fill="url(#grid)" opacity="0.9"/>
  <rect width="1200" height="320" rx="24" fill="url(#fade)"/>
  <rect x="0.5" y="0.5" width="1199" height="319" rx="23.5" fill="none" stroke="#E9E0D3"/>
  <g font-family="Inter, -apple-system, 'Segoe UI', Helvetica, Arial, sans-serif">
    <g font-family="'SF Mono', Menlo, Consolas, monospace" font-size="13" letter-spacing="2.5" fill="#B45309">
      <rect x="64" y="82" width="36" height="1.5" fill="#B45309"/>
      <text x="112" y="87">LUCAS AMARAL EVANGELISTA</text>
    </g>
    <text x="64" y="160" font-size="58" font-weight="600" letter-spacing="-2.2" fill="#4A3B33">I build <tspan fill="#B45309">systems that ship</tspan>.</text>
    <text x="64" y="206" font-size="19" fill="#7A6A60">Software engineer: APIs, data pipelines, web apps, tests and CI, Python to TypeScript.</text>
    <text x="64" y="234" font-size="19" fill="#7A6A60">Deepest in AI engineering: LLM pipelines, agents over MCP, retrieval and evaluation.</text>
    <g font-family="'SF Mono', Menlo, Consolas, monospace" font-size="12.5" letter-spacing="1" fill="#7A6A60">
      <text x="64" y="282">lucasamarale.dev</text>
      <text x="230" y="282" fill="#B45309">·</text>
      <text x="250" y="282">Python · TypeScript · React · SQL · Claude · MCP · n8n</text>
    </g>
  </g>
  <g transform="translate(1030,72)">
    <rect x="0" y="0" width="112" height="112" rx="26" fill="#F8F4EE" stroke="#E9E0D3"/>
    <g transform="translate(20.00,26.23) scale(0.11429)" fill="#B45309"><path d="M208 141 102 426l164-79-23 69L0 516 137 187Z"/><path d="M309 0l174 441-83-45-51-125-98 57 24-73 58-35-26-74-75 188-80 44Z"/><path d="M387 128l193 109-39 25-69-34 18 49 75 42 24 61-78-42 22 63 75 47 22 73-123-67Z"/></g>
  </g>
</svg>
